<?xml version="1.0" standalone="no"?>
<!DOCTYPE svg PUBLIC "-//W3C//DTD SVG 20010904//EN"
 "http://www.w3.org/TR/2001/REC-SVG-20010904/DTD/svg10.dtd">
<svg version="1.0" xmlns="http://www.w3.org/2000/svg"
 width="830.000000pt" height="300.000000pt" viewBox="0 0 830.000000 300.000000"
 preserveAspectRatio="xMidYMid meet">

<g transform="translate(0.000000,300.000000) scale(0.100000,-0.100000)"
fill="#000000" stroke="none">
<path d="M3455 2628 c-208 -16 -490 -49 -620 -72 -126 -23 -493 -104 -506
-112 -4 -2 -62 -20 -130 -39 -157 -45 -379 -122 -536 -186 -121 -49 -123 -49
-234 -49 l-111 0 -65 45 -64 45 -230 0 -229 0 13 -32 c15 -38 21 -41 117 -69
111 -32 149 -54 167 -96 20 -49 18 -159 -5 -227 l-18 -54 30 22 c157 116 544
152 1076 101 186 -17 529 -34 850 -40 248 -5 256 0 45 30 -195 28 -734 138
-805 164 -14 5 -96 26 -182 47 -87 21 -154 42 -150 46 4 4 59 26 122 48 63 22
124 45 135 50 33 15 280 89 425 127 315 81 545 119 930 152 220 19 462 8 764
-35 190 -27 486 -102 599 -152 23 -11 69 -29 102 -41 131 -49 359 -177 482
-272 l63 -49 212 -15 c543 -38 899 -106 1308 -250 154 -54 378 -152 368 -160
-2 -2 -64 1 -138 6 -74 4 -164 8 -200 8 l-65 1 50 -32 c28 -17 52 -34 55 -37
3 -4 25 -19 51 -33 53 -31 149 -52 351 -77 163 -20 202 -35 231 -91 14 -27 17
-48 12 -93 -6 -53 -41 -202 -59 -252 -13 -36 32 22 75 96 37 64 99 231 99 268
0 9 -12 40 -26 69 -28 56 -70 91 -189 157 -38 21 -72 42 -75 46 -8 11 -228
118 -310 150 -41 17 -88 36 -105 43 -95 43 -347 114 -640 180 -174 39 -519 86
-805 110 -145 11 -145 11 -204 51 -170 115 -348 209 -538 284 -113 45 -173 65
-363 120 -93 27 -322 67 -465 80 -370 34 -447 37 -665 19z"/>
<path d="M4040 1810 c168 -15 447 -40 620 -54 173 -15 326 -29 339 -32 23 -5
20 -9 -40 -65 l-64 -59 120 40 c66 22 129 45 140 50 11 6 65 26 120 44 55 19
116 41 135 50 l35 15 -40 1 c-22 0 -377 9 -790 20 -412 11 -779 19 -815 19
-36 -1 72 -14 240 -29z"/>
<path d="M1010 663 c-35 -24 -40 -33 -40 -80 0 -31 6 -48 22 -63 29 -27 82
-26 109 1 20 20 20 22 5 31 -13 7 -21 5 -30 -7 -18 -25 -58 -16 -66 15 -15 60
18 95 65 70 35 -19 50 -9 28 17 -25 31 -63 37 -93 16z"/>
<path d="M2542 670 c-34 -14 -54 -69 -41 -114 11 -41 33 -56 84 -56 55 0 75
15 75 55 0 34 -1 35 -40 35 -22 0 -40 -4 -40 -10 0 -5 9 -10 21 -10 14 0 19
-5 17 -17 -2 -13 -13 -18 -37 -18 -29 0 -36 5 -44 28 -14 43 5 77 43 77 16 0
30 -4 30 -10 0 -5 9 -10 20 -10 23 0 27 22 7 39 -20 16 -69 22 -95 11z"/>
<path d="M4823 656 c-23 -20 -28 -32 -28 -71 0 -56 28 -85 82 -85 53 0 73 15
73 55 0 33 -2 35 -35 35 -38 0 -47 -14 -14 -23 35 -9 16 -32 -27 -32 l-39 0 0
50 c0 45 2 50 24 53 13 2 34 -2 47 -8 38 -21 52 -7 22 23 -34 33 -68 34 -105
3z"/>
<path d="M5952 655 c-27 -22 -32 -34 -32 -69 0 -57 17 -77 71 -83 64 -7 92 18
92 81 0 54 -21 82 -69 92 -24 4 -37 0 -62 -21z m86 -27 c7 -7 12 -26 12 -43 0
-38 -16 -55 -51 -55 -28 0 -39 15 -39 55 0 13 3 30 6 39 7 19 55 21 72 4z"/>
<path d="M6669 673 c-23 -6 -49 -56 -49 -95 0 -46 31 -78 75 -78 46 0 83 38
54 55 -6 4 -16 -1 -23 -10 -33 -46 -93 15 -68 70 12 26 54 35 67 15 9 -15 35
-12 35 4 0 30 -48 51 -91 39z"/>
<path d="M7241 654 c-26 -21 -31 -33 -31 -69 0 -35 5 -48 26 -64 33 -26 84
-27 114 -3 18 14 23 30 24 66 1 41 -3 51 -27 72 -36 31 -68 30 -106 -2z m87
-26 c7 -7 12 -26 12 -43 0 -38 -16 -55 -51 -55 -28 0 -39 15 -39 55 0 13 3 30
6 39 7 19 55 21 72 4z"/>
<path d="M1220 585 l0 -85 60 0 c47 0 60 3 60 15 0 11 -12 15 -45 15 l-45 0 0
70 c0 56 -3 70 -15 70 -12 0 -15 -16 -15 -85z"/>
<path d="M1420 585 l0 -85 70 0 c56 0 70 3 70 15 0 11 -12 15 -50 15 -47 0
-50 2 -50 25 0 23 4 25 45 25 25 0 45 5 45 10 0 6 -20 10 -45 10 -38 0 -45 3
-45 20 0 17 7 20 50 20 38 0 50 4 50 15 0 12 -14 15 -70 15 l-70 0 0 -85z"/>
<path d="M1690 666 c0 -3 -13 -41 -30 -85 -27 -75 -28 -81 -11 -81 10 0 21 9
24 20 4 15 14 20 40 20 27 0 37 -5 42 -20 3 -11 15 -20 25 -20 18 0 18 2 -2
53 -11 28 -25 67 -31 85 -8 24 -16 32 -34 32 -13 0 -23 -2 -23 -4z m28 -94
c-28 -5 -31 1 -16 33 l12 28 12 -29 c11 -26 10 -29 -8 -32z"/>
<path d="M1880 585 c0 -76 2 -85 18 -85 16 0 18 7 14 55 -2 30 -2 55 1 55 3 0
19 -25 36 -55 21 -38 37 -55 51 -55 18 0 20 7 20 85 0 68 -3 85 -15 85 -10 0
-15 -15 -17 -57 l-3 -58 -35 58 c-21 35 -41 57 -52 57 -16 0 -18 -10 -18 -85z"/>
<path d="M2120 585 c0 -69 3 -85 15 -85 12 0 15 16 15 85 0 69 -3 85 -15 85
-12 0 -15 -16 -15 -85z"/>
<path d="M2250 585 c0 -78 2 -85 20 -85 18 0 20 7 20 58 l1 57 21 -40 c26 -50
47 -75 65 -75 10 0 13 20 13 85 0 68 -3 85 -14 85 -11 0 -16 -15 -18 -52 l-3
-53 -30 52 c-22 39 -36 53 -52 53 -22 0 -23 -3 -23 -85z"/>
<path d="M3160 585 l0 -85 49 0 c69 0 94 23 94 83 0 66 -21 87 -90 87 l-53 0
0 -85z m105 0 c0 -49 -1 -50 -32 -53 l-33 -3 0 56 0 56 33 -3 c31 -3 32 -4 32
-53z"/>
<path d="M3400 585 l0 -85 70 0 c56 0 70 3 70 15 0 11 -12 15 -50 15 -47 0
-50 2 -50 25 0 23 4 25 45 25 25 0 45 5 45 10 0 6 -20 10 -45 10 -38 0 -45 3
-45 20 0 17 7 20 45 20 33 0 45 4 45 15 0 12 -14 15 -65 15 l-65 0 0 -85z"/>
<path d="M3620 655 c0 -9 9 -15 25 -15 24 0 25 -2 25 -70 0 -63 2 -70 20 -70
18 0 20 7 20 70 0 68 1 70 25 70 16 0 25 6 25 15 0 12 -14 15 -70 15 -56 0
-70 -3 -70 -15z"/>
<path d="M3877 638 c-8 -18 -24 -57 -35 -85 -19 -51 -19 -53 -2 -53 10 0 22 9
25 20 5 15 15 20 42 20 26 0 36 -5 40 -20 5 -18 43 -30 43 -13 0 4 -14 42 -32
85 -36 87 -56 99 -81 46z m53 -60 c0 -4 -9 -8 -21 -8 -15 0 -19 4 -15 16 3 9
6 21 6 27 1 13 30 -22 30 -35z"/>
<path d="M4070 585 c0 -78 2 -85 20 -85 18 0 20 7 20 85 0 78 -2 85 -20 85
-18 0 -20 -7 -20 -85z"/>
<path d="M4210 585 l0 -85 60 0 c47 0 60 3 60 15 0 11 -11 15 -40 15 l-40 0 0
70 c0 63 -2 70 -20 70 -18 0 -20 -7 -20 -85z"/>
<path d="M4420 585 c0 -69 3 -85 15 -85 12 0 15 16 15 85 0 69 -3 85 -15 85
-12 0 -15 -16 -15 -85z"/>
<path d="M4550 585 c0 -77 2 -85 19 -85 17 0 19 6 16 55 -5 65 4 64 41 -5 17
-32 34 -50 46 -50 16 0 18 9 18 85 0 69 -3 85 -15 85 -12 0 -15 -13 -15 -57
l0 -58 -27 45 c-33 55 -47 70 -67 70 -13 0 -16 -14 -16 -85z"/>
<path d="M5460 585 c0 -69 3 -85 15 -85 10 0 15 11 15 35 0 33 2 35 34 35 33
0 66 21 66 40 0 5 -5 21 -12 35 -10 22 -17 25 -65 25 l-53 0 0 -85z m90 36 c0
-19 -18 -31 -46 -31 -8 0 -14 10 -14 25 0 21 5 25 30 25 23 0 30 -5 30 -19z"/>
<path d="M5680 585 c0 -78 2 -85 20 -85 16 0 20 7 20 35 0 45 18 45 50 0 14
-19 33 -35 43 -35 10 0 17 3 15 8 -24 49 -33 62 -42 62 -6 0 0 7 12 16 22 15
27 38 16 68 -5 12 -21 16 -70 16 l-64 0 0 -85z m105 35 c0 -10 -12 -16 -32
-18 -28 -3 -33 0 -33 18 0 18 5 21 33 18 20 -2 32 -8 32 -18z"/>
<path d="M6170 655 c0 -9 9 -15 25 -15 24 0 25 -2 25 -70 0 -56 3 -70 15 -70
12 0 15 14 15 70 0 68 1 70 25 70 16 0 25 6 25 15 0 12 -14 15 -65 15 -51 0
-65 -3 -65 -15z"/>
<path d="M6390 585 l0 -85 70 0 c56 0 70 3 70 15 0 11 -12 15 -50 15 -47 0
-50 2 -50 25 0 23 4 25 45 25 29 0 45 4 45 13 0 8 -14 11 -45 9 -40 -4 -45 -2
-45 17 0 19 6 21 50 21 38 0 50 4 50 15 0 12 -14 15 -70 15 l-70 0 0 -85z"/>
<path d="M6850 655 c0 -10 10 -15 30 -15 l30 0 0 -70 c0 -56 3 -70 15 -70 12
0 15 14 15 70 0 68 1 70 25 70 16 0 25 6 25 15 0 12 -14 15 -70 15 -56 0 -70
-3 -70 -15z"/>
<path d="M7080 585 c0 -78 2 -85 20 -85 18 0 20 7 20 85 0 78 -2 85 -20 85
-18 0 -20 -7 -20 -85z"/>
<path d="M7470 585 c0 -78 2 -85 19 -85 17 0 20 8 23 52 l3 52 28 -52 c19 -35
35 -52 48 -52 17 0 19 8 19 85 0 69 -3 85 -15 85 -12 0 -15 -13 -15 -57 l-1
-58 -35 58 c-23 37 -42 57 -55 57 -17 0 -19 -8 -19 -85z"/>
<path d="M550 590 c0 -19 7 -20 185 -20 178 0 185 1 185 20 0 19 -7 20 -185
20 -178 0 -185 -1 -185 -20z"/>
<path d="M2730 590 c0 -19 7 -20 180 -20 173 0 180 1 180 20 0 19 -7 20 -180
20 -173 0 -180 -1 -180 -20z"/>
<path d="M5020 590 c0 -19 7 -20 185 -20 178 0 185 1 185 20 0 19 -7 20 -185
20 -178 0 -185 -1 -185 -20z"/>
<path d="M7660 590 c0 -19 7 -20 185 -20 178 0 185 1 185 20 0 19 -7 20 -185
20 -178 0 -185 -1 -185 -20z"/>
</g>
</svg>
