<?xml version="1.0" standalone="no"?>
<!DOCTYPE svg PUBLIC "-//W3C//DTD SVG 20010904//EN"
 "http://www.w3.org/TR/2001/REC-SVG-20010904/DTD/svg10.dtd">
<svg version="1.0" xmlns="http://www.w3.org/2000/svg"
 width="1568.000000pt" height="568.000000pt" viewBox="0 0 1568.000000 568.000000"
 preserveAspectRatio="xMidYMid meet">

<g transform="translate(0.000000,568.000000) scale(0.100000,-0.100000)"
fill="#000000" stroke="none">
<path d="M30 2845 l0 -2805 7805 0 7805 0 0 2805 0 2805 -7805 0 -7805 0 0
-2805z m7508 1795 c813 -58 1526 -274 2107 -639 120 -75 314 -216 381 -276
l49 -44 -226 -1 -226 0 -112 92 c-80 66 -111 97 -111 113 0 62 -95 143 -208
178 -67 21 -104 25 -289 30 l-213 6 0 -47 c0 -96 72 -182 183 -219 38 -12 94
-17 211 -19 l160 -3 21 -28 c12 -15 25 -43 29 -62 l6 -34 -267 7 c-148 3 -374
11 -503 16 -1911 81 -3208 225 -3790 420 -90 31 -190 75 -190 85 0 7 267 91
445 140 507 139 1075 240 1550 275 83 6 166 12 185 14 90 8 677 5 808 -4z
m-952 -1007 c10 -10 19 -17 21 -16 10 7 35 -14 54 -44 23 -37 36 -127 19 -138
-5 -3 -10 -14 -10 -23 0 -21 -43 -63 -87 -85 -42 -22 -85 -21 -138 3 -129 59
-125 257 5 309 42 17 116 13 136 -6z m-2036 -173 c414 -13 706 -28 915 -45 93
-8 175 -15 182 -15 7 0 13 -4 13 -8 0 -4 -80 -14 -177 -20 -412 -29 -996 -91
-1393 -148 -715 -103 -1173 -223 -1345 -353 l-52 -39 -305 -9 -304 -8 -76 -38
c-129 -63 -224 -186 -296 -382 l-33 -90 6 131 c13 331 101 617 229 748 110
113 446 239 731 275 50 6 101 13 115 15 42 8 1457 -3 1790 -14z m1661 -149
c39 -40 40 -89 0 -133 -22 -25 -37 -32 -65 -32 -43 0 -86 29 -99 68 -32 96 91
169 164 97z m-374 -155 c75 -82 21 -206 -90 -206 -50 0 -99 37 -115 87 -12 37
-11 46 6 85 37 86 137 102 199 34z m-370 -116 c28 -26 36 -52 24 -83 -33 -86
-151 -63 -151 29 0 62 82 97 127 54z m645 -15 c9 -3 21 -19 28 -34 32 -78 -72
-139 -127 -74 -26 30 -28 42 -12 77 18 39 63 51 111 31z m-998 -91 c31 -30 8
-69 -36 -62 -26 3 -37 41 -18 64 16 18 35 18 54 -2z m539 -157 c10 -6 20 -28
23 -48 12 -72 -71 -105 -118 -48 -25 29 -22 55 7 84 26 27 62 32 88 12z m-332
-35 c47 -39 16 -122 -45 -122 -33 0 -66 36 -66 70 0 60 64 89 111 52z m-283
-104 c51 -48 9 -143 -62 -141 -90 3 -117 114 -38 158 32 18 69 11 100 -17z
m-275 -5 c10 -10 17 -31 17 -53 0 -41 -19 -65 -62 -75 -22 -6 -33 -1 -58 23
-16 17 -30 40 -30 52 0 12 14 35 30 52 25 24 36 29 58 23 15 -3 35 -14 45 -22z
m1937 -307 c58 -26 76 -25 85 5 4 10 13 19 21 19 11 0 14 -23 14 -125 0 -140
-12 -162 -43 -75 -34 97 -104 150 -195 150 -69 0 -112 -35 -112 -90 0 -50 36
-82 172 -151 186 -96 250 -188 214 -312 -18 -62 -69 -120 -130 -148 -58 -26
-161 -25 -248 3 l-68 22 -28 -27 c-16 -15 -31 -24 -35 -20 -4 3 -7 69 -7 145
0 107 3 138 13 138 7 0 21 -25 31 -56 40 -128 172 -212 273 -173 51 19 73 48
73 95 0 59 -37 94 -170 164 -59 31 -126 75 -152 100 -82 80 -90 185 -21 278
60 80 200 106 313 58z m771 -314 c81 -182 154 -343 163 -357 9 -13 27 -27 41
-31 14 -3 25 -12 25 -20 0 -11 -33 -14 -180 -14 -153 0 -180 2 -180 15 0 10
10 15 29 15 16 0 36 7 45 15 16 17 10 46 -30 128 l-18 38 -130 -3 -130 -3 -19
-55 c-28 -77 -19 -108 33 -116 24 -4 40 -12 40 -20 0 -11 -26 -14 -125 -14
-95 0 -125 3 -125 13 0 7 13 17 28 23 16 6 40 26 54 45 14 19 90 179 169 357
79 177 148 321 154 319 5 -2 76 -153 156 -335z m1870 311 l81 -28 22 28 c12
15 25 27 29 27 4 0 7 -59 7 -131 0 -137 -9 -160 -35 -85 -40 116 -169 187
-284 156 -61 -16 -125 -79 -153 -148 -19 -49 -22 -75 -22 -182 0 -106 4 -134
23 -182 69 -177 293 -195 434 -35 l27 31 0 -41 c0 -36 -5 -45 -37 -71 -79 -62
-120 -76 -233 -80 -89 -3 -115 -1 -170 18 -169 57 -257 187 -248 369 5 106 35
177 104 252 119 126 277 162 455 102z m758 -296 c78 -178 151 -338 162 -356
11 -18 33 -38 49 -44 17 -6 30 -17 30 -24 0 -10 -41 -13 -185 -13 -154 0 -185
2 -185 14 0 10 13 16 36 18 58 5 63 25 28 105 l-30 68 -129 3 -130 2 -22 -55
c-13 -31 -23 -64 -23 -75 0 -24 37 -50 72 -50 18 0 28 -5 28 -15 0 -13 -21
-15 -125 -15 -94 0 -125 3 -125 13 0 6 14 18 31 26 42 18 59 50 183 329 158
357 175 392 184 392 5 0 73 -145 151 -323z m2498 -12 c80 -181 154 -342 165
-357 10 -15 30 -31 44 -34 13 -3 24 -12 24 -20 0 -11 -33 -14 -180 -14 -153 0
-180 2 -180 15 0 9 9 15 24 15 64 0 70 23 30 118 l-27 62 -128 0 -128 0 -15
-27 c-45 -89 -37 -139 24 -149 24 -4 40 -12 40 -20 0 -11 -26 -14 -125 -14
-104 0 -125 2 -125 15 0 8 6 15 14 15 35 0 75 53 129 172 30 68 99 221 152
341 54 120 102 216 108 214 6 -2 75 -151 154 -332z m654 310 c48 -20 64 -23
75 -14 8 6 14 18 14 25 0 8 7 14 15 14 13 0 15 -21 15 -125 0 -79 -4 -125 -10
-125 -6 0 -13 8 -16 18 -18 55 -32 81 -63 115 -47 52 -80 67 -146 67 -49 0
-60 -4 -86 -29 -41 -41 -39 -84 5 -125 18 -18 83 -58 143 -89 119 -63 176
-111 204 -172 48 -104 -1 -223 -113 -279 -67 -34 -172 -36 -250 -6 -67 25 -71
25 -104 -5 -15 -14 -29 -25 -30 -25 -2 0 -4 65 -4 145 0 93 4 145 10 145 6 0
12 -6 14 -12 30 -104 84 -179 150 -209 150 -68 286 69 170 170 -19 17 -67 47
-107 67 -204 103 -266 187 -232 316 35 136 194 196 346 133z m-10961 0 c0 -10
-10 -15 -30 -15 -17 0 -39 -9 -50 -20 -20 -20 -21 -30 -18 -300 l3 -280 32
-32 c28 -28 40 -33 96 -36 75 -5 113 11 151 61 40 52 47 114 44 350 -3 238 -4
243 -67 256 -18 3 -32 11 -31 16 0 16 252 13 258 -2 2 -9 -7 -13 -26 -13 -16
0 -40 -9 -53 -19 -24 -19 -24 -21 -29 -278 l-5 -258 -29 -52 c-49 -88 -121
-123 -254 -123 -104 0 -150 13 -201 56 -70 60 -75 84 -79 382 -4 254 -4 263
-25 277 -12 8 -34 15 -49 15 -18 0 -28 5 -28 15 0 13 28 15 195 15 167 0 195
-2 195 -15z m856 -210 l179 -224 3 175 c3 207 -2 224 -65 238 -24 6 -43 16
-43 23 0 10 30 13 130 13 109 0 130 -2 130 -15 0 -9 -9 -15 -24 -15 -13 0 -35
-9 -50 -21 l-26 -20 0 -344 c0 -189 -4 -346 -8 -349 -4 -2 -12 -2 -18 2 -6 4
-119 141 -252 305 l-242 298 0 -260 0 -260 26 -20 c15 -12 37 -21 50 -21 15 0
24 -6 24 -15 0 -13 -18 -15 -125 -13 -123 3 -162 16 -93 30 67 13 68 18 68
337 l0 286 -26 28 c-14 15 -39 30 -55 34 -16 3 -29 12 -29 19 0 11 27 14 133
14 l133 0 180 -225z m764 210 c0 -10 -10 -15 -29 -15 -16 0 -39 -9 -52 -19
-24 -19 -24 -19 -27 -288 -2 -147 -1 -287 3 -310 8 -53 27 -73 71 -73 24 0 34
-5 34 -15 0 -13 -26 -15 -197 -13 -125 2 -198 7 -197 13 1 6 18 13 39 16 65
11 65 9 65 346 0 290 -1 304 -20 323 -11 11 -33 20 -49 20 -30 0 -46 12 -34
24 3 3 93 6 200 6 165 0 193 -2 193 -15z m390 0 c0 -10 -10 -15 -29 -15 -44 0
-61 -10 -61 -34 0 -29 181 -449 190 -439 11 12 167 375 173 402 9 37 -9 60
-53 67 -24 4 -40 12 -40 20 0 11 26 14 125 14 100 0 125 -3 125 -14 0 -8 -11
-17 -25 -20 -13 -3 -36 -21 -50 -39 -14 -19 -91 -180 -171 -358 -80 -178 -150
-328 -155 -333 -12 -13 -26 16 -183 379 -131 303 -145 331 -174 345 -17 8 -32
21 -32 28 0 9 43 12 180 12 153 0 180 -2 180 -15z m1080 -100 c0 -91 -3 -115
-14 -115 -8 0 -18 18 -25 43 -23 95 -75 128 -208 135 l-93 5 0 -151 0 -152 33
6 c66 13 100 52 113 133 4 25 12 41 20 41 11 0 14 -37 14 -200 0 -163 -3 -200
-14 -200 -8 0 -16 16 -20 41 -13 80 -46 120 -113 134 l-33 7 0 -134 c0 -170 4
-178 94 -178 128 0 208 43 247 134 28 66 55 76 46 19 -3 -21 -11 -75 -18 -120
l-11 -83 -324 0 c-281 0 -324 2 -324 15 0 10 10 15 33 15 18 0 42 6 53 14 18
14 19 29 19 330 0 221 -3 318 -11 326 -6 6 -30 14 -53 17 -25 4 -41 11 -41 19
0 12 55 14 315 14 l315 0 0 -115z m616 104 c84 -14 145 -54 173 -111 50 -105
0 -225 -112 -267 -19 -7 -26 -15 -21 -23 5 -7 53 -76 108 -152 68 -94 110
-143 128 -150 16 -6 28 -16 28 -23 0 -10 -29 -13 -118 -13 l-118 0 -119 170
c-97 139 -123 170 -143 170 l-24 0 4 -141 c3 -157 9 -169 76 -169 22 0 32 -4
30 -12 -4 -10 -54 -14 -196 -16 -166 -2 -192 0 -192 13 0 10 10 15 28 15 15 0
38 7 50 16 22 15 22 16 22 329 0 313 0 314 -22 329 -12 9 -35 16 -50 16 -18 0
-28 5 -28 15 0 13 31 15 217 15 119 0 245 -5 279 -11z m2134 -3 c0 -8 -16 -16
-42 -19 -23 -3 -48 -14 -55 -23 -10 -14 -13 -89 -13 -316 l0 -298 25 -16 c35
-23 188 -15 232 11 37 22 77 81 99 147 9 27 22 48 30 48 8 0 14 -6 14 -12 0
-17 -19 -185 -26 -225 l-5 -33 -329 0 c-287 0 -330 2 -330 15 0 10 10 15 28
15 15 0 38 7 50 16 22 15 22 16 22 329 0 313 0 314 -22 329 -12 9 -35 16 -50
16 -18 0 -28 5 -28 15 0 13 29 15 200 15 163 0 200 -3 200 -14z m2790 -10
c103 -39 154 -132 128 -233 -13 -53 -61 -105 -113 -124 -19 -7 -35 -17 -35
-22 0 -11 174 -252 208 -289 14 -16 34 -28 44 -28 10 0 18 -7 18 -15 0 -12
-20 -15 -119 -15 l-120 0 -118 170 c-92 132 -123 169 -140 170 -23 0 -23 -1
-23 -139 0 -133 1 -141 22 -155 12 -9 35 -16 50 -16 18 0 28 -5 28 -15 0 -13
-28 -15 -195 -15 -167 0 -195 2 -195 15 0 10 11 15 35 15 22 0 43 8 55 20 20
20 21 30 18 331 -3 294 -4 311 -22 325 -11 8 -35 14 -53 14 -32 0 -41 9 -25
24 4 4 120 6 257 4 206 -4 258 -7 295 -22z m487 7 c2 -6 -8 -13 -23 -15 -57
-7 -54 -22 36 -247 47 -116 87 -211 90 -211 3 0 30 59 59 131 l54 131 -28 71
c-28 75 -71 127 -105 127 -11 0 -20 7 -20 15 0 13 27 15 180 15 153 0 180 -2
180 -15 0 -8 -9 -15 -19 -15 -34 0 -51 -11 -51 -34 0 -22 135 -385 149 -399 8
-8 137 319 148 373 6 32 -18 60 -53 60 -15 0 -24 6 -24 15 0 12 18 15 100 15
80 0 100 -3 100 -14 0 -8 -9 -18 -20 -21 -28 -9 -35 -25 -176 -393 -69 -180
-129 -331 -133 -335 -14 -14 -27 14 -106 218 -43 110 -82 211 -87 225 -9 22
-20 0 -105 -200 -98 -233 -111 -256 -124 -243 -5 5 -69 158 -143 341 -74 183
-142 345 -151 359 -9 14 -26 28 -36 30 -10 3 -19 12 -19 19 0 12 28 14 162 12
113 -2 163 -7 165 -15z m2463 2 c0 -10 -10 -15 -28 -15 -15 0 -38 -7 -50 -16
-21 -14 -22 -22 -22 -155 l0 -139 126 0 126 0 -4 140 c-2 86 -7 143 -14 150
-6 7 -30 14 -53 17 -24 3 -40 10 -38 17 2 7 67 12 200 14 163 2 197 0 197 -11
0 -9 -15 -16 -41 -20 -23 -3 -47 -11 -53 -17 -8 -8 -11 -105 -11 -326 0 -301
1 -316 19 -330 11 -8 35 -14 53 -14 23 0 33 -5 33 -15 0 -13 -26 -15 -197 -13
-146 2 -197 6 -201 16 -2 8 8 12 32 12 23 0 43 7 56 20 18 18 20 33 20 165 l0
145 -125 0 -125 0 0 -149 c0 -144 1 -151 22 -165 12 -9 35 -16 50 -16 18 0 28
-5 28 -15 0 -13 -28 -15 -195 -15 -167 0 -195 2 -195 15 0 10 10 15 28 15 15
0 38 7 50 16 22 15 22 16 22 329 0 313 0 314 -22 329 -12 9 -35 16 -50 16 -18
0 -28 5 -28 15 0 13 28 15 195 15 167 0 195 -2 195 -15z"/>
<path d="M7193 1982 c-23 -53 -45 -105 -49 -114 -6 -16 3 -18 99 -18 l105 0
-51 115 c-27 63 -53 115 -56 115 -3 0 -25 -44 -48 -98z"/>
<path d="M9823 1972 l-52 -117 101 -3 c55 -1 102 -1 104 1 3 3 -92 226 -99
234 -2 1 -26 -51 -54 -115z"/>
<path d="M12313 1965 l-51 -115 105 0 c80 0 104 3 100 13 -31 80 -92 217 -97
217 -3 0 -29 -52 -57 -115z"/>
<path d="M5780 2130 l0 -163 61 7 c72 7 105 22 132 58 45 60 27 196 -30 234
-16 10 -55 19 -95 22 l-68 5 0 -163z"/>
<path d="M10650 2130 l0 -163 60 6 c112 12 154 55 154 157 -1 105 -45 152
-149 158 l-65 4 0 -162z"/>
</g>
</svg>
